<svg xmlns="http://www.w3.org/2000/svg" width="1460" height="320" viewBox="0 0 1460 320" role="img" aria-labelledby="title desc">
  <title id="title">FieldWorks by Ferdant transparent wordmark</title>
  <desc id="desc">A horizontal FieldWorks wordmark with FIELD in warm white, WORKS in green, clear spacing, and a field crop marker icon on a transparent background.</desc>

  <g aria-hidden="true">
    <text x="90" y="184" font-family="Arial Black, Impact, Helvetica, sans-serif" font-size="116" font-weight="900" textLength="438" lengthAdjust="spacingAndGlyphs" fill="#F4F1E8">FIELD</text>
    <text x="552" y="184" font-family="Arial Black, Impact, Helvetica, sans-serif" font-size="116" font-weight="900" textLength="520" lengthAdjust="spacingAndGlyphs" fill="#2F6B3F">WORKS</text>
    <text x="96" y="252" font-family="Public Sans, Source Sans 3, Helvetica, Arial, sans-serif" font-size="56" font-weight="900" letter-spacing="5" fill="#E6F2E4">BY FERDANT</text>
  </g>

  <g transform="translate(1168 82)" aria-hidden="true">
    <rect x="0" y="0" width="140" height="156" rx="8" fill="#183B2D"/>
    <path d="M28 104 C48 88 65 88 84 104 C98 116 110 118 124 108" fill="none" stroke="#F4F1E8" stroke-width="10" stroke-linecap="round"/>
    <path d="M28 72 C49 56 66 56 84 72 C98 84 110 86 124 76" fill="none" stroke="#F4F1E8" stroke-width="10" stroke-linecap="round"/>
    <path d="M70 24 C92 44 97 73 72 126 C43 74 49 44 70 24 Z" fill="#C8A84E"/>
    <path d="M70 24 C57 58 58 91 72 126" fill="none" stroke="#F4F1E8" stroke-width="5" stroke-linecap="round" opacity="0.75"/>
    <path d="M47 63 C30 68 21 86 22 113 C44 106 57 92 60 72" fill="#69A85A"/>
    <path d="M93 63 C110 68 119 86 118 113 C96 106 83 92 80 72" fill="#69A85A"/>
    <path d="M70 22 V134" stroke="#111111" stroke-width="5" stroke-linecap="round" opacity="0.28"/>
  </g>
</svg>
