<svg xmlns="http://www.w3.org/2000/svg" width="1200" height="1200" viewBox="0 0 1200 1200" role="img" aria-label="FieldWorks by Ferdant regulatory assembly seal v2">
  <rect width="1200" height="1200" fill="#F4F1E8"/>
  <circle cx="600" cy="600" r="470" fill="#F4F1E8" stroke="#102D25" stroke-width="34"/>
  <circle cx="600" cy="600" r="405" fill="none" stroke="#2F6B3F" stroke-width="12"/>
  <circle cx="600" cy="600" r="335" fill="none" stroke="#777B7E" stroke-width="4" opacity="0.7"/>
  <text x="600" y="300" text-anchor="middle" font-family="Arial Black, Helvetica, sans-serif" font-size="84" letter-spacing="7" fill="#102D25">FIELDWORKS</text>
  <text x="600" y="360" text-anchor="middle" font-family="Helvetica, Arial, sans-serif" font-size="34" font-weight="700" letter-spacing="6" fill="#2F6B3F">BY FERDANT</text>
  <g transform="translate(600 590)">
    <rect x="-245" y="-145" width="490" height="285" fill="none" stroke="#102D25" stroke-width="18"/>
    <path d="M-205 78 C-143 34 -82 34 -32 78 C20 34 82 34 205 78" fill="none" stroke="#2F6B3F" stroke-width="34" stroke-linecap="round"/>
    <path d="M-205 122 C-126 90 -42 90 32 122 C94 94 153 94 205 122" fill="none" stroke="#2F6B3F" stroke-width="16" stroke-linecap="round" opacity="0.75"/>
    <path d="M0 88 V-135" stroke="#102D25" stroke-width="32" stroke-linecap="round"/>
    <path d="M-72 -40 L0 -135 L72 -40" fill="none" stroke="#C8A84E" stroke-width="25" stroke-linecap="round" stroke-linejoin="round"/>
    <circle cx="0" cy="-172" r="26" fill="#1F5E7A"/>
    <path d="M-118 -12 H118" stroke="#777B7E" stroke-width="9" stroke-linecap="round" opacity="0.85"/>
  </g>
  <text x="600" y="855" text-anchor="middle" font-family="Helvetica, Arial, sans-serif" font-size="31" font-weight="700" letter-spacing="5" fill="#102D25">REGULATORY ASSEMBLY • FIELD DATA USEFULNESS</text>
  <circle cx="225" cy="600" r="14" fill="#C8A84E"/>
  <circle cx="975" cy="600" r="14" fill="#C8A84E"/>
</svg>
